<?xml version="1.0" encoding="UTF-8" standalone="no"?>
<!-- Created with Inkscape (http://www.inkscape.org/) -->

<svg
   xmlns:dc="http://purl.org/dc/elements/1.1/"
   xmlns:cc="http://creativecommons.org/ns#"
   xmlns:rdf="http://www.w3.org/1999/02/22-rdf-syntax-ns#"
   xmlns:svg="http://www.w3.org/2000/svg"
   xmlns="http://www.w3.org/2000/svg"
   xmlns:sodipodi="http://sodipodi.sourceforge.net/DTD/sodipodi-0.dtd"
   xmlns:inkscape="http://www.inkscape.org/namespaces/inkscape"
   version="1.1"
   id="svg10"
   width="564"
   height="565"
   viewBox="0 0 564 565"
   sodipodi:docname="ingeliz.svg"
   inkscape:version="0.92.2 (5c3e80d, 2017-08-06)">
  <metadata
     id="metadata16">
    <rdf:RDF>
      <cc:Work
         rdf:about="">
        <dc:format>image/svg+xml</dc:format>
        <dc:type
           rdf:resource="http://purl.org/dc/dcmitype/StillImage" />
        <dc:title></dc:title>
      </cc:Work>
    </rdf:RDF>
  </metadata>
  <defs
     id="defs14">
    <inkscape:path-effect
       effect="bspline"
       id="path-effect52"
       is_visible="true"
       weight="33.333333"
       steps="2"
       helper_size="0"
       apply_no_weight="true"
       apply_with_weight="true"
       only_selected="false" />
    <inkscape:path-effect
       effect="bspline"
       id="path-effect42"
       is_visible="true"
       weight="33.333333"
       steps="2"
       helper_size="0"
       apply_no_weight="true"
       apply_with_weight="true"
       only_selected="false" />
    <inkscape:path-effect
       effect="bspline"
       id="path-effect38"
       is_visible="true"
       weight="33.333333"
       steps="2"
       helper_size="0"
       apply_no_weight="true"
       apply_with_weight="true"
       only_selected="false" />
    <inkscape:path-effect
       effect="bspline"
       id="path-effect34"
       is_visible="true"
       weight="33.333333"
       steps="2"
       helper_size="0"
       apply_no_weight="true"
       apply_with_weight="true"
       only_selected="false" />
    <inkscape:path-effect
       effect="bspline"
       id="path-effect30"
       is_visible="true"
       weight="33.333333"
       steps="2"
       helper_size="0"
       apply_no_weight="true"
       apply_with_weight="true"
       only_selected="false" />
    <inkscape:path-effect
       effect="bspline"
       id="path-effect26"
       is_visible="true"
       weight="33.333333"
       steps="2"
       helper_size="0"
       apply_no_weight="true"
       apply_with_weight="true"
       only_selected="false" />
  </defs>
  <sodipodi:namedview
     pagecolor="#ffffff"
     bordercolor="#666666"
     borderopacity="1"
     objecttolerance="10"
     gridtolerance="10"
     guidetolerance="10"
     inkscape:pageopacity="0"
     inkscape:pageshadow="2"
     inkscape:window-width="724"
     inkscape:window-height="480"
     id="namedview12"
     showgrid="false"
     inkscape:zoom="1.31"
     inkscape:cx="101.62733"
     inkscape:cy="282.5"
     inkscape:window-x="671"
     inkscape:window-y="33"
     inkscape:window-maximized="0"
     inkscape:current-layer="svg10" />
  <g
     id="g1006"
     transform="matrix(0.76083173,0,0,0.81671251,89.493812,48.384792)">
    <g
       transform="translate(9.0643208,17.240423)"
       id="g964">
      <g
         id="g882"
         transform="matrix(0.56162518,0,0,0.5356244,366.35552,148.18015)">
        <g
           transform="translate(41.984733,-9.9236641)"
           id="g61">
          <path
             style="fill:none;stroke:#000000;stroke-width:1px;stroke-linecap:butt;stroke-linejoin:miter;stroke-opacity:1"
             d="m -50.370771,220.79973 v -5.34236 h 13.737483 l -6.105548,-9.92151 -15.26387,-5.34236 -20.606225,18.31665 c -10.27129,-6.0992 -14.337618,-12.25805 -15.26387,-22.13261 l 19.079838,-15.26387 -3.815968,-15.26387 5.342355,-8.39513 -17.553451,-10.68471 c -12.757653,3.01501 -24.290403,7.25493 -29.001353,18.31665 l 9.01625,23.56973 c -16.33881,11.99662 -30.98787,24.9588 -35.8701,43.50203 -5.17548,20.07511 -0.63103,25.57033 0.14208,36.72255 l -6.10555,2.28958 1.52639,-69.45061 c -6.35995,-4.77441 -12.71989,-5.91024 -19.07984,-0.76319 v 30.52774 c 4.55488,9.38844 7.15029,16.8174 8.39513,22.8958 l -0.7632,15.26387 c -1.24842,4.09393 -5.40927,5.27544 -9.92151,6.10555 l -2.28958,9.92152 37.39648,0.76319 0.47905,42.64958 -33.29637,-0.67394 -2.28958,9.92152 h 13.73748 c 7.62083,17.58677 18.97478,23.97419 29.76455,32.05413 l 180.113665,6.10555 c 16.935778,-16.37384 40.957308,-30.78017 48.84438,-61.05549 L 51.133965,290.25034 30.52774,320.01489 V 251.32747 L 41.212449,249.80108 39.686062,223.8525 29.001353,220.79973 8.3951286,199.43031 v -3.05277 l 30.5277404,-5.34236 -10e-7,-16.02706 -6.105547,-28.23816 -69.450609,-6.86874 0.763193,56.47632 24.422192,5.34235 15.2638705,16.02707 -25.1853855,5.34235 -14.500677,13.73748 z"
             id="path20"
             inkscape:connector-curvature="0"
             sodipodi:nodetypes="ccccccccccccccccccccccccccccccccccccccccccccccccc" />
          <path
             style="fill:none;stroke:#000000;stroke-width:1px;stroke-linecap:butt;stroke-linejoin:miter;stroke-opacity:1"
             d="m -106.21118,224.62733 c -5.81557,-1.80489 -2.50617,7.4571 -1.86335,11.18012 0.72535,4.20104 2.72769,8.72245 6.21118,11.18013 3.087118,2.17803 8.353548,4.37026 11.18012,1.86335 3.411213,-3.02544 -0.621118,-13.66459 -0.621118,-13.66459 -1.878831,-4.2922 -6.40881,-7.92161 -14.906832,-10.55901 z"
             id="path22"
             inkscape:connector-curvature="0"
             sodipodi:nodetypes="sssscs" />
          <path
             style="fill:none;stroke:#000000;stroke-width:1px;stroke-linecap:butt;stroke-linejoin:miter;stroke-opacity:1"
             d="m -61.490683,224.62733 c 0,0 0,0 0,0 z"
             id="path24"
             inkscape:connector-curvature="0"
             inkscape:path-effect="#path-effect26"
             inkscape:original-d="m -61.490683,224.62733 c 0.01,-0.01 0.01,-0.01 0,0 z" />
          <path
             style="fill:none;stroke:#000000;stroke-width:1px;stroke-linecap:butt;stroke-linejoin:miter;stroke-opacity:1"
             d="m -122.36025,287.36025 c -1.4732,15.16171 -0.65916,25.74897 -0.62112,37.8882 l 31.055904,0.62112 c 0,0 2.986545,3.01937 3.10559,4.96894 0.208877,3.42074 -1.253882,7.8428 -4.347826,9.31677 -3.853288,1.83573 -12.422358,-3.10559 -12.422358,-3.10559 l -13.04348,-1.86335 -9.93789,2.48447 -4.96894,1.86335 c -6.9416,2.6031 11.4084,8.68152 17.3913,12.42236 0,0 21.702513,6.71899 32.919256,8.07454 13.976979,1.68912 27.70515,4.68105 42.236025,0 19.308589,-6.22017 34.8675275,-9.45507 42.857143,-16.14907 l 22.981366,-19.25466 -3.10559,-75.15528 -72.049689,-1.24224 c 0,0 -2.379182,2.85783 -1.863354,4.34783 0.848674,2.45145 6.832298,3.72671 6.832298,3.72671 l 22.360249,34.78261 1.863354,2.48447 c 0,0 5.815377,-4.61073 9.31677,-4.96895 3.6496955,-0.37339 10.559006,3.10559 10.559006,3.10559 l -1.242236,7.45342 -6.2111802,1.86335 v 7.45342 l 6.2111802,-3.10559 v -3.72671 c 0,0 8.2685862,-8.13305 11.8012422,-5.59006 4.2309208,3.04564 -1.8633541,15.52795 -1.8633541,15.52795 l -13.6645962,16.77019 -5.5900619,7.45341 -8.074534,-8.07453 c 0,0 -11.058593,2.28379 -14.285715,-1.24224 -8.692036,-9.49712 -19.254658,-25.46584 -19.254658,-25.46584 l -3.726708,6.21118 -1.242236,35.40373 h -6.21118 l -3.726708,-40.37267 c 0,0 -6.663008,-10.53096 -11.801243,-13.6646 -5.273276,-3.216 -18.012422,-4.34782 -18.012422,-4.34782 z"
             id="path44"
             inkscape:connector-curvature="0"
             sodipodi:nodetypes="cccsscccscssscccscccsccccccsccccscccccscc" />
          <path
             style="fill:none;stroke:#000000;stroke-width:1.13953209px;stroke-linecap:butt;stroke-linejoin:miter;stroke-opacity:1"
             d="m -82.518149,247.04045 12.859268,0.8181 c 0,0 -2.322755,6.52875 -5.511115,6.54477 -3.475934,0.0174 -7.348153,-7.36287 -7.348153,-7.36287 z"
             id="path46"
             inkscape:connector-curvature="0"
             sodipodi:nodetypes="ccsc" />
          <path
             style="fill:none;stroke:#000000;stroke-width:1px;stroke-linecap:butt;stroke-linejoin:miter;stroke-opacity:1"
             d="m -77.018634,238.91304 c 1.89486,0.23033 4.188215,-1.82458 4.347827,-3.7267 0.135214,-1.61137 -1.50177,-3.52045 -3.105591,-3.72671 -1.766471,-0.22718 -4.055029,1.3488 -4.347826,3.10559 -0.292797,1.75679 1.337586,4.13291 3.10559,4.34782 z"
             id="path48"
             inkscape:connector-curvature="0"
             sodipodi:nodetypes="sssss" />
          <path
             style="fill:none;stroke:#000000;stroke-width:1px;stroke-linecap:butt;stroke-linejoin:miter;stroke-opacity:1"
             d="m -64.90594,227.3187 c 0.724322,1.03554 4.243988,2.27778 5.278828,1.8635 1.03484,-0.41428 -0.414438,-2.48468 -2.173598,-3.10594 -1.75916,-0.62126 -3.829552,0.2069 -3.10523,1.24244 z"
             id="path50"
             inkscape:connector-curvature="0"
             inkscape:path-effect="#path-effect52"
             inkscape:original-d="m -67.701863,227.1118 c 3.520669,1.24124 7.040337,2.48347 10.559006,3.72671 -1.448275,-2.07139 -2.897551,-4.14179 -4.347826,-6.21118 -2.069393,0.82716 -4.139787,1.65531 -6.21118,2.48447 z"
             sodipodi:nodetypes="ssss" />
        </g>
        <path
           inkscape:connector-curvature="0"
           id="path871"
           d="m -0.7387762,363.43774 c -41.6770188,-1.47063 -78.3317048,-2.69328 -81.4548548,-2.71701 l -5.67845,-0.0432 -7.36503,-5.51115 c -10.536179,-7.8841 -16.336659,-14.39656 -20.954089,-23.52611 l -1.64925,-3.26087 h -6.57861 -6.57861 l 0.41231,-1.70808 c 0.22677,-0.93944 0.69695,-2.79282 1.04486,-4.11862 l 0.63255,-2.41054 16.82073,0.28393 16.820739,0.28392 -0.40695,-14.89942 c -0.22383,-8.19469 -0.406959,-18.20821 -0.406959,-22.25227 v -7.35284 l -14.44099,-0.0772 c -7.94255,-0.0424 -16.27308,-0.25206 -18.51228,-0.46583 l -4.07129,-0.38869 0.9657,-3.97579 c 0.94621,-3.89559 1.01928,-3.99148 3.62185,-4.75298 6.3636,-1.86199 7.32804,-3.59718 7.74911,-13.94204 0.28288,-6.94959 0.1567,-8.31777 -1.2029,-13.04348 -0.83541,-2.90373 -2.76364,-8.14037 -4.28495,-11.63698 l -2.76603,-6.35747 0.16654,-14.76054 0.16654,-14.76054 2.79504,-1.43812 c 3.45448,-1.77743 7.14385,-1.59748 11.46525,0.55921 l 3.00564,1.50003 -0.40585,21.73913 c -0.22322,11.95652 -0.5864,27.8221 -0.80707,35.25685 l -0.40122,13.5177 3.87044,-1.3926 3.87044,-1.39261 -0.25212,-2.80833 c -0.13867,-1.54459 -0.77381,-6.10608 -1.41143,-10.13664 -1.02253,-6.46378 -1.06908,-8.0512 -0.39455,-13.45604 2.53962,-20.34958 11.405779,-33.83316 33.168539,-50.44243 2.64752,-2.02058 4.81366,-3.76829 4.81366,-3.88381 0,-0.11552 -1.95652,-5.28674 -4.34782,-11.4916 -2.39131,-6.20486 -4.34783,-11.70736 -4.34783,-12.22778 0,-2.88616 6.42287,-9.35811 12.1118,-12.20437 3.40798,-1.70506 12.726488,-4.78733 14.824842,-4.9036 1.015844,-0.0563 15.478509,8.14604 16.939497,9.60703 0.158434,0.15844 -0.847938,2.04569 -2.236392,4.1939 -1.388453,2.1482 -2.394422,4.34635 -2.235497,4.88477 1.275746,4.32193 3.436578,13.8568 3.219733,14.20733 -0.14841,0.23991 -4.359043,3.65049 -9.356962,7.57906 l -9.087118,7.14286 0.28272,3.21424 c 0.672795,7.64898 5.295391,14.10825 14.082938,19.67843 l 1.589031,1.00725 10.140752,-8.99965 c 5.577416,-4.94981 10.45241,-9.0041 10.833329,-9.00954 0.380913,-0.005 3.712801,1.03715 7.404199,2.31687 l 6.7116208,2.32676 2.449869,3.87909 c 1.347423,2.13349 2.4498642,4.02569 2.4498642,4.20487 0,0.17918 -2.7950312,0.32578 -6.2111812,0.32578 h -6.2111798 v 3.45394 3.45394 l 7.2956588,8.03674 c 4.012615,4.42021 7.5221182,8.03675 7.7989072,8.03675 0.276788,0 3.686055,-3.0507 7.576161,-6.77933 3.890099,-3.72864 7.577795,-6.92309 8.194882,-7.09879 0.617081,-0.1757 6.013273,-1.32683 11.991534,-2.55806 5.978261,-1.23123 11.391733,-2.45079 12.029932,-2.71012 0.989161,-0.40196 -0.01888,-1.71415 -6.832298,-8.8935 L 29.696006,191.91757 17.50659,189.24917 5.317168,186.58076 5.027547,159.18813 C 4.868255,144.12218 4.767019,131.74532 4.802584,131.684 c 0.09331,-0.16091 67.635621,6.62181 67.824907,6.81109 0.08709,0.0871 1.433633,6.04507 2.992316,13.23995 2.558771,11.81129 2.833963,13.8758 2.833963,21.26046 0,4.49838 -0.06988,8.19581 -0.155279,8.2165 -0.0854,0.0207 -6.863354,1.22234 -15.062112,2.67031 l -14.906833,2.63268 -0.1969,2.01847 c -0.181578,1.86139 0.610341,2.84992 10.175963,12.70236 5.705074,5.87615 10.824733,10.8819 11.377024,11.12391 0.552286,0.24201 2.990969,1.01068 5.419286,1.70817 l 4.415118,1.26817 0.407305,7.60859 c 0.224012,4.18473 0.575006,9.72669 0.779987,12.31547 l 0.37269,4.70689 -5.142727,0.72727 c -2.828497,0.40001 -5.238478,0.82304 -5.355516,0.94007 -0.117043,0.11704 -0.140615,16.20037 -0.05242,35.74074 l 0.160441,35.52793 10.522348,-15.24321 c 5.787286,-8.38377 10.680826,-15.24321 10.874525,-15.24321 0.56689,0 46.24902,23.61521 46.86282,24.22556 0.71974,0.71569 -2.15523,8.90239 -5.12344,14.58939 -5.28871,10.133 -12.46453,18.5463 -26.07237,30.56857 -5.33315,4.71174 -11.12971,9.89443 -12.88126,11.5171 l -3.184642,2.95031 -8.325074,-0.078 c -4.578795,-0.0429 -42.42446,-1.28126 -84.1014782,-2.75189 z m -8.8479508,-9.892 c 4.0970618,-0.34841 28.148106,-7.31199 39.593292,-11.46359 7.662988,-2.77965 9.840702,-4.21824 23.563752,-15.56606 l 12.393565,-10.24845 0.01491,-3.41614 c 0.02373,-5.44472 -2.90305,-72.72795 -3.175472,-73.00037 -0.135491,-0.13549 -16.575615,-0.56065 -36.533615,-0.9448 l -36.287273,-0.69844 -1.137274,1.40446 c -0.691472,0.85393 -1.064118,2.15361 -0.950652,3.3156 0.158807,1.62636 0.717186,2.18877 3.747453,3.77448 3.5228198,1.84346 3.6786398,2.0462 14.596274,18.99216 6.06949,9.42086 11.502664,17.767 12.073726,18.54699 l 1.038299,1.41818 2.067292,-1.5482 c 5.040304,-3.77467 8.441416,-4.39642 13.71326,-2.5069 2.672646,0.95793 2.944485,1.23589 2.888398,2.95338 -0.130404,3.99332 -0.74846,4.9257 -3.84482,5.80024 l -2.925584,0.82629 v 4.63122 4.63123 l 3.726708,-1.88124 c 3.218932,-1.62491 3.726708,-2.11807 3.726708,-3.61944 0,-1.89141 1.94618,-4.06832 5.590062,-6.25279 5.770286,-3.45924 7.724547,0.0615 4.797628,8.64326 -1.150665,3.37378 -2.984137,6.04895 -10.973926,16.01179 l -9.592447,11.96127 -3.76159,-3.67692 -3.76159,-3.67692 -5.114795,0.32202 c -3.401112,0.21414 -5.750677,0.0586 -7.012702,-0.46411 -2.120087,-0.87817 -8.7179442,-8.79811 -16.423124,-19.714 -2.71277,-3.84316 -5.130888,-6.98757 -5.37359,-6.98757 -0.242708,0 -1.330106,1.44451 -2.416441,3.21003 l -1.975162,3.21005 -0.538323,13.40486 c -0.29608,7.37268 -0.549242,15.29151 -0.56259,17.59742 l -0.02427,4.19254 h -2.484472 c -1.570838,0 -2.486304,-0.28551 -2.489459,-0.7764 -0.0025,-0.42701 -0.820137,-9.40791 -1.816429,-19.95754 l -1.811441,-19.18114 -2.376118,-3.45249 c -3.754919,-5.45588 -8.038472,-9.79978 -11.067789,-11.22372 -1.535447,-0.72175 -5.800255,-1.90586 -9.477348,-2.63136 l -6.685621,-1.31909 -12.689134,1.64405 c -6.97902,0.90423 -12.82411,1.77904 -12.9891,1.94402 -0.79128,0.79128 -1.44118,21.30449 -0.94407,29.79839 l 0.54527,9.31677 15.3493,0.16608 15.349293,0.16608 1.63423,2.14259 c 1.413286,1.85291 1.573807,2.50024 1.187286,4.78802 -0.302715,1.79177 -1.119789,3.31828 -2.532069,4.73056 -2.390149,2.39014 -3.277913,2.36326 -10.03852,-0.30395 -2.14236,-0.84522 -6.61441,-1.94682 -9.93788,-2.44802 -5.7885,-0.87293 -6.27786,-0.85393 -11.63276,0.45159 -6.82958,1.66507 -12.1118,3.89997 -12.1118,5.12449 0,1.64068 3.90097,4.25324 12.30412,8.2403 11.56589,5.4877 27.990598,9.98343 45.149294,12.35814 7.901801,1.09358 20.077863,2.04089 22.670807,1.76381 0.854038,-0.0913 3.440783,-0.32648 5.748323,-0.52271 z M -32.339311,245.2954 c 1.228969,-0.80391 3.960783,-5.24818 3.960783,-6.44362 0,-0.92058 -0.473646,-1.15632 -2.329193,-1.15928 -1.281055,-0.002 -4.664882,-0.18553 -7.519614,-0.40773 l -5.190417,-0.404 1.033007,1.99762 c 0.568161,1.0987 2.027987,3.09894 3.244062,4.44499 1.686012,1.86621 2.673236,2.44511 4.15741,2.43786 1.070497,-0.005 2.260279,-0.21486 2.643962,-0.46584 z m -17.35254,-5.22298 c 1.165323,-1.09477 1.437547,-1.9986 1.437547,-4.77292 0,-5.80491 -1.704758,-10.55161 -4.938969,-13.75195 -3.266845,-3.23265 -9.112438,-6.26776 -12.892178,-6.69379 -2.34056,-0.26381 -2.69795,-0.12668 -3.33951,1.28138 -0.9473,2.07911 1.17204,12.68083 3.42294,17.12277 3.35178,6.61442 12.468586,10.42349 16.31017,6.81451 z m 16.770186,-11.18012 c 1.830336,-1.71952 1.865,-4.41406 0.07819,-6.07872 -3.890478,-3.62453 -9.448099,1.65333 -6.369404,6.04878 1.276957,1.82311 4.366814,1.83781 6.291211,0.0299 z m 14.915087,-8.99582 c 0.470547,-1.22622 -2.383969,-3.93939 -4.144608,-3.93939 -3.536969,0 -4.100174,1.90617 -1.103118,3.73351 2.46249,1.50141 4.716652,1.58985 5.247726,0.20588 z"
           style="fill:#122e75;fill-opacity:1;stroke:none;stroke-width:0.62111801" />
      </g>
      <g
         id="g166"
         transform="matrix(6.1229188,0,0,9.4708034,-266.92803,-259.72592)"
         style="fill:#1c1f24">
        <text
           id="text112"
           y="70.397179"
           x="50.782928"
           style="font-style:italic;font-variant:normal;font-weight:normal;font-stretch:normal;font-size:50.79999924px;line-height:1.25;font-family:'Monotype Corsiva';-inkscape-font-specification:'Monotype Corsiva, Italic';font-variant-ligatures:normal;font-variant-caps:normal;font-variant-numeric:normal;font-feature-settings:normal;text-align:start;letter-spacing:0px;word-spacing:0px;writing-mode:lr-tb;text-anchor:start;fill:#1c1f24;fill-opacity:1;stroke:none;stroke-width:0.26458332"
           xml:space="preserve"><tspan
             style="font-style:italic;font-variant:normal;font-weight:normal;font-stretch:normal;font-size:50.79999924px;font-family:'Monotype Corsiva';-inkscape-font-specification:'Monotype Corsiva, Italic';font-variant-ligatures:normal;font-variant-caps:normal;font-variant-numeric:normal;font-feature-settings:normal;text-align:start;writing-mode:lr-tb;text-anchor:start;fill:#1c1f24;stroke-width:0.26458332"
             y="70.397179"
             x="50.782928"
             id="tspan110"
             sodipodi:role="line">M</tspan></text>
        <text
           transform="scale(1.005489,0.99454097)"
           id="text116"
           y="71.493202"
           x="75.216255"
           style="font-style:italic;font-variant:normal;font-weight:normal;font-stretch:normal;font-size:53.83385468px;line-height:1.25;font-family:'Monotype Corsiva';-inkscape-font-specification:'Monotype Corsiva, Italic';font-variant-ligatures:normal;font-variant-caps:normal;font-variant-numeric:normal;font-feature-settings:normal;text-align:start;letter-spacing:0px;word-spacing:0px;writing-mode:lr-tb;text-anchor:start;fill:#1c1f24;fill-opacity:1;stroke:none;stroke-width:0.63086545"
           xml:space="preserve"><tspan
             style="font-style:italic;font-variant:normal;font-weight:normal;font-stretch:normal;font-size:53.83385468px;font-family:'Monotype Corsiva';-inkscape-font-specification:'Monotype Corsiva, Italic';font-variant-ligatures:normal;font-variant-caps:normal;font-variant-numeric:normal;font-feature-settings:normal;text-align:start;writing-mode:lr-tb;text-anchor:start;fill:#1c1f24;stroke-width:0.63086545"
             y="71.493202"
             x="75.216255"
             id="tspan114"
             sodipodi:role="line">L</tspan></text>
      </g>
    </g>
    <path
       inkscape:connector-curvature="0"
       id="path168"
       d="M 260.95703,-6.7109375 C 133.05763,-8.2206897 9.3441953,79.958183 -31.054885,201.4453 c -27.896327,84.05632 -9.202543,180.03033 43.965551,250.28526 51.346257,69.97099 133.814544,118.43439 221.086014,123.37286 90.61181,8.05068 184.71372,-23.34357 250.97993,-86.28226 42.0179,-39.21845 71.3097,-91.77945 81.88277,-148.29577 C 583.74417,253.84635 559.3192,158.80719 498.07848,94.070463 461.92574,56.272069 416.31631,27.565869 366.89648,10.554688 332.81609,-1.029718 296.91643,-6.9678568 260.95703,-6.7109375 Z M 268.39648,6.25 C 390.98915,4.4536674 510.03455,87.202681 550.31445,203.12695 576.33712,278.54654 562.95276,365.36722 517.89648,430.85742 469.02275,504.60088 386.1592,556.33664 297.32227,562.42578 194.76936,572.49325 87.623803,529.74363 23.007,448.88706 -24.639957,390.31317 -44.093932,310.21152 -28.911004,236.28315 -11.791568,150.33365 47.133641,72.249818 128.36328,37.554688 171.94452,16.869048 220.19697,6.3805718 268.39648,6.25 Z"
       style="fill:#e15a00;fill-opacity:1;stroke:none;stroke-width:1.37037957" />
  </g>
</svg>
